# xmcd
#
# Track frame offsets:
#	150
#	23527
#	48502
#	77040
#	99290
#	119195
#	146870
#	174367
#	197667
#	222540
#	241685
#	266342
#
# Disc length: 3845 seconds
#
# Revision: 1
# Processed by: cddbd v1.4PL0 Copyright (c) Steve Scherf et al.
# Submitted via: EasyCDDAExtractor 5.0.7
#
DISCID=a40f030c
DTITLE=Various Artist - Anh Yeu Em
DYEAR=1900
DGENRE=Vietnamese
TTITLE0=Huong Lan and Thai Chau - Lau Dai Tinh Ai
TTITLE1=Thai Chau - Vi Yeu Em
TTITLE2=Huong Lan - Thang Sau Troi Mua
TTITLE3=Huong Lan and Thai Chau - Ban Tinh Cuoi
TTITLE4=Thai Chau - Tinh Khuc Buon
TTITLE5=Huong Lan - Hoa No Mot Lan
TTITLE6=Thai Chau - Anh Yeu Em
TTITLE7=Huong Lan and Thai Chau - Tuong Tu 4
TTITLE8=Huong Lan - Chuyen Chung Minh
TTITLE9=Huong Lan and Thai Chau - Dem Chia Xa
TTITLE10=Huong Lan - Sao Danh Xa Em
TTITLE11=Thai Chau - Tieng Mua Dem
EXTD=
EXTT0=
EXTT1=
EXTT2=
EXTT3=
EXTT4=
EXTT5=
EXTT6=
EXTT7=
EXTT8=
EXTT9=
EXTT10=
EXTT11=
PLAYORDER=
